
        <svg xmlns="http://www.w3.org/2000/svg" xmlns:xlink="http://www.w3.org/1999/xlink" version="1.1" width="3171.4285714285716" 
        height="1446.0567185095322" viewBox="0 0 3171.4285714285716 1446.0567185095322">
			
			<g transform="scale(8.571428571428571) translate(10, 10)">
				<defs id="SvgjsDefs1001"><linearGradient id="SvgjsLinearGradient1013"><stop id="SvgjsStop1014" stop-color="#b98947" offset="0"></stop><stop id="SvgjsStop1015" stop-color="#faf0a1" offset="1"></stop></linearGradient><linearGradient id="SvgjsLinearGradient1016"><stop id="SvgjsStop1017" stop-color="#905e26" offset="0"></stop><stop id="SvgjsStop1018" stop-color="#f5ec9b" offset="0.5"></stop><stop id="SvgjsStop1019" stop-color="#905e26" offset="1"></stop></linearGradient><linearGradient id="SvgjsLinearGradient1020"><stop id="SvgjsStop1021" stop-color="#905e26" offset="0"></stop><stop id="SvgjsStop1022" stop-color="#f5ec9b" offset="0.5"></stop><stop id="SvgjsStop1023" stop-color="#905e26" offset="1"></stop></linearGradient></defs><g id="SvgjsG1007" featureKey="xJRin6-0" transform="matrix(0.9722260339909932,0,0,0.9722260339909932,126.38851286305066,-13.611283155809694)" fill="url(#SvgjsLinearGradient1013)"><g xmlns="http://www.w3.org/2000/svg" transform="translate(0,-952.3622)"><path style="color: ; font-style: normal; font-variant: normal; font-weight: normal; font-stretch: normal; font-size: medium; line-height: normal; font-family: sans-serif; text-indent: 0; text-align: start; text-decoration: none; text-decoration-line: none; text-decoration-style: solid; text-decoration-color: ; letter-spacing: normal; word-spacing: normal; text-transform: none; direction: ltr; block-progression: tb; writing-mode: lr-tb; baseline-shift: baseline; text-anchor: start; white-space: normal; clip-rule: nonzero; display: inline; overflow: visible; visibility: visible; opacity: 1; isolation: auto; mix-blend-mode: normal; color-interpolation: sRGB; color-interpolation-filters: linearRGB; solid-color: ; solid-opacity: 1; fill-opacity: 1; fill-rule: nonzero; stroke-width: 1.5; stroke-linecap: round; stroke-linejoin: round; stroke-miterlimit: 4; stroke-dasharray: none; stroke-dashoffset: 0; stroke-opacity: 1; color-rendering: auto; image-rendering: auto; shape-rendering: auto; text-rendering: auto; enable-background: accumulate" d="m 84.887757,966.36228 a 1.124715,1.1250181 0 0 0 -0.169862,0.0146 l -22.158184,3.13744 a 1.124715,1.1250181 0 0 0 -0.635519,0.31636 l -18.637944,18.64307 -12.183195,0 a 1.124715,1.1250181 0 0 0 -0.796593,0.3308 L 17.660538,1001.454 a 1.124715,1.1250181 0 0 0 0.796593,1.9187 l 12.183195,0 6.04181,5.9936 a 1.124715,1.1250181 0 0 0 0.0029,0.01 l 0.0029,0 a 1.124715,1.1250181 0 0 0 0.07908,0.079 l 6.240958,6.2456 a 1.124715,1.1250181 0 0 0 0.02636,0.023 l 5.965665,5.9672 0,12.1865 a 1.124715,1.1250181 0 0 0 1.921196,0.7938 l 12.645921,-12.6493 a 1.124715,1.1250181 0 0 0 0.328009,-0.7968 l 0,-12.1777 18.640874,-18.64585 a 1.124715,1.1250181 0 0 0 0.319224,-0.6386 l 3.133659,-22.1114 a 1.124715,1.1250181 0 0 0 -1.101175,-1.28309 l 0,-0.003 z m -1.335464,2.45194 -2.873009,20.25413 -18.514941,18.52285 -18.058072,6.0201 -5.341863,-5.3434 5.968595,-18.06295 18.514941,-18.51987 20.304349,-2.87086 z m -14.417758,13.05945 a 1.124715,1.1250181 0 0 0 -0.776093,0.33397 l -3.206874,3.16085 c -0.935046,-0.54832 -1.996518,-0.79451 -3.045799,-0.72064 l 0,-0.003 c -1.333698,0.0945 -2.635233,0.68721 -3.581742,1.7695 a 1.124715,1.1250181 0 0 0 -0.01171,0.015 c -1.64543,1.9397 -1.64844,4.7358 -0.158148,6.6351 a 1.124715,1.1250181 0 0 0 0.289936,0.3691 c 1.29305,1.0973 1.405688,2.8852 0.298723,4.198 -1.096562,1.248 -2.899327,1.4024 -4.199687,0.3075 -0.05576,-0.05 -0.100875,-0.1059 -0.152291,-0.1582 a 1.124715,1.1250181 0 0 0 -0.196219,-0.2051 c -0.734144,-0.8868 -0.901432,-2.0527 -0.427583,-3.1022 a 1.124715,1.1250181 0 1 0 -2.050057,-0.9258 c -0.713397,1.5803 -0.568381,3.3706 0.289937,4.8132 l -3.195161,3.19885 a 1.124715,1.1250181 0 1 0 1.590259,1.5906 l 3.160016,-3.16075 c 2.179247,1.46375 5.133754,1.11685 6.879406,-0.8788 a 1.124715,1.1250181 0 0 0 0.01171,-0.015 c 1.631538,-1.9235 1.675408,-4.7027 0.172792,-6.6236 a 1.124715,1.1250181 0 0 0 -0.304582,-0.3808 c -1.221385,-1.0309 -1.389017,-2.9063 -0.295792,-4.2007 1.080944,-1.2265 2.965807,-1.3341 4.199687,-0.3018 1.019927,0.9124 1.316986,2.2646 0.776093,3.4625 a 1.124715,1.1250181 0 1 0 2.050057,0.9258 c 0.756023,-1.6745 0.53782,-3.5796 -0.462727,-5.062 l 3.148301,-3.1053 a 1.124715,1.1250181 0 0 0 -0.802451,-1.93636 z m -37.565826,8.84978 10.625151,0 -5.213001,15.77505 -5.087069,-5.0474 a 1.124715,1.1250181 0 0 0 -0.790737,-0.3281 l -9.931061,0 10.396717,-10.39955 z m 30.077261,19.41635 0,10.6162 -10.396715,10.4026 0,-9.9367 a 1.124715,1.1250181 0 0 0 -0.32801,-0.794 l -5.034353,-5.0356 15.759078,-5.2525 z m -30.501915,3.6208 a 1.124715,1.1250181 0 0 0 -0.781951,1.9334 l 6.322961,6.3247 a 1.124715,1.1250181 0 1 0 1.590258,-1.5908 l -6.322961,-6.3245 a 1.124715,1.1250181 0 0 0 -0.808307,-0.3428 z m -6.814975,5.2114 a 1.124715,1.1250181 0 0 0 -0.773165,0.3427 l -9.190111,9.2484 a 1.124715,1.1250181 0 1 0 1.593187,1.5848 l 9.19304,-9.2483 a 1.124715,1.1250181 0 0 0 -0.822951,-1.9276 z m 7.919077,7.8656 a 1.124715,1.1250181 0 0 0 -0.770236,0.3399 l -9.245757,9.2482 a 1.124715,1.1250181 0 1 0 1.590259,1.5907 l 9.245756,-9.2483 a 1.124715,1.1250181 0 0 0 -0.820022,-1.9305 z" fill="url(#SvgjsLinearGradient1013)" stroke="none"></path></g></g><g id="SvgjsG1008" featureKey="tgvQcv-0" transform="matrix(2.9628376207371248,0,0,2.9628376207371248,-4.147972245194653,72.28223097148035)" fill="url(#SvgjsLinearGradient1016)"><path d="M3.68 17.72 l2.86 0 c0.6 0 0.6 2.28 0 2.28 l-3.86 0 c-1.28 0 -1.28 0 -1.28 -1.08 l0 -11.84 c0 -1.08 0 -1.08 1.22 -1.1 l3.9 0.02 c0.6 0 0.6 2.28 0 2.28 l-2.84 0 l0 3.64 l2 0 c0.6 0 0.6 2.3 0 2.3 l-2 0 l0 3.5 z M10.94 6 l4 0 c0.6 0 0.6 2.28 0 2.28 l-2.86 0 l0 3.64 l2 0 c0.6 0 0.6 2.3 0 2.3 l-2 0 l0 5.34 c0 0.6 -2.28 0.6 -2.28 0 l0 -12.46 c0 -1.1 0 -1.1 1.14 -1.1 z M20.08 17.72 l2.86 0 c0.6 0 0.6 2.28 0 2.28 l-3.86 0 c-1.28 0 -1.28 0 -1.28 -1.08 l0 -11.84 c0 -1.08 0 -1.08 1.22 -1.1 l3.9 0.02 c0.6 0 0.6 2.28 0 2.28 l-2.84 0 l0 3.64 l2 0 c0.6 0 0.6 2.3 0 2.3 l-2 0 l0 3.5 z M31.06 16.2 c0 -0.6 2.22 -0.6 2.22 0 c0 2.24 -1.16 3.8 -3.28 3.8 c-2.22 0 -3.74 -1.38 -3.8 -3.5 l0 -0.04 l0 -6.9 l0 -0.04 c0.06 -2.14 1.66 -3.56 3.8 -3.52 c2.24 0.04 3.28 1.6 3.28 3.82 c0 0.6 -2.22 0.6 -2.22 0 c0 -0.22 0 -0.4 -0.04 -0.6 c-0.12 -1.18 -1.54 -0.96 -1.84 -0.8 c-0.58 0.28 -0.7 0.98 -0.7 1.46 l0 6.26 c0.02 0.48 0.12 1.18 0.7 1.46 c0.3 0.16 1.72 0.38 1.84 -0.78 c0.04 -0.2 0.04 -0.4 0.04 -0.62 z M35.32 6 l7.96 0 c0.6 0 0.6 2.24 0 2.24 l-2.84 0.04 l0 11.28 c0 0.6 -2.28 0.6 -2.28 0 l0 -11.28 l-2.84 -0.04 c-0.6 0 -0.6 -2.24 0 -2.24 z M52.28 8.82 c0.06 0.22 0.02 8.34 -0.06 8.64 c-0.36 1.54 -1.44 2.54 -3.14 2.54 l-0.52 0 c-1.68 0 -2.76 -1 -3.14 -2.54 c-0.08 -0.3 -0.1 -8.42 -0.06 -8.64 c0.28 -1.68 1.32 -2.78 3.2 -2.82 l0.52 0 c1.9 0.04 2.92 1.14 3.2 2.82 z M48.26 17.6 c0.34 0.18 0.78 0.18 1.12 0 c0.58 -0.28 0.68 -0.98 0.7 -1.46 l0 -6.26 c0 -0.48 -0.12 -1.18 -0.7 -1.46 c-0.34 -0.18 -0.78 -0.18 -1.12 0 c-0.58 0.28 -0.7 0.98 -0.7 1.46 l0 6.26 c0.02 0.48 0.12 1.18 0.7 1.46 z M62.5 6.44 l0 8.6 c0 6.6 -7.8 6.64 -7.8 -0.02 l0 -8.6 c0 -0.56 2.28 -0.56 2.28 0 l0 8.6 c0 3.66 3.24 3.68 3.24 0.02 l0 -8.6 c0 -0.6 2.28 -0.6 2.28 0 z M70.92 6.42 c1.36 0.86 1.78 2.38 1.76 3.92 c-0.02 1.28 -0.2 2.56 -1.46 3.5 c-1.06 0.82 -2.38 0.64 -3.64 0.64 l0 5.08 c0 0.6 -2.28 0.6 -2.28 0 l0 -12.3 c0 -0.94 0.02 -1.24 1.42 -1.26 l2.06 0 c0.72 0 1.52 0.02 2.14 0.42 z M70.4 10.76 c0.02 -0.22 0.02 -1.02 -0.02 -1.4 c-0.08 -0.74 -0.36 -1.12 -1.28 -1.12 l-1.52 0 l0 3.96 l1.72 0 c0.92 0 1.06 -1.12 1.1 -1.44 z M81.94 13.08 l0 2.02 c0 0.58 0.1 2.46 -0.44 3.42 c-0.62 1.1 -1.8 1.42 -2.9 1.48 c-1.08 0.06 -2.1 -0.34 -2.86 -1.1 c-0.8 -0.76 -0.92 -1.72 -0.96 -2.44 l0 -6.92 c0.04 -0.72 0.16 -1.68 0.96 -2.44 c0.76 -0.76 1.78 -1.16 2.86 -1.1 c2.32 0.12 3.24 1.54 3.24 3.86 c0 0.52 -2.18 0.6 -2.18 -0.08 c0 -1.56 -0.92 -1.64 -1.86 -1.38 c-0.62 0.28 -0.74 1 -0.74 1.52 l0 6.18 c0.02 0.5 0.08 1.22 0.7 1.5 c0.48 0.16 1.94 0.4 2.06 -0.8 c0.04 -0.18 0.02 -1.08 0.02 -1.3 l-0.02 -1.24 l-0.88 0 c-0.6 0 -0.6 -2.3 0 -2.3 l2.02 0 c0.98 0 0.98 0 0.98 1.12 z M92.24 18.86 c0.42 1 -1.82 1.48 -2.08 0.88 l-0.12 -0.28 c-0.66 -1.58 -1.38 -3.38 -2.04 -4.98 l-0.98 0 l0 5.08 c0 0.6 -2.28 0.6 -2.28 0 l0 -12.3 c0 -0.94 0.02 -1.24 1.42 -1.26 l2.06 0 c0.72 0 1.52 0.02 2.14 0.42 c1.36 0.86 1.78 2.38 1.76 3.92 c-0.02 1.28 -0.2 2.56 -1.46 3.5 c-0.14 0.08 -0.26 0.16 -0.38 0.24 c0.64 1.52 1.34 3.26 1.96 4.78 z M89.84 10.76 c0.02 -0.22 0.02 -1.02 -0.02 -1.4 c-0.08 -0.74 -0.36 -1.12 -1.28 -1.12 l-1.52 0 l0 3.96 l1.72 0 c0.92 0 1.06 -1.12 1.1 -1.44 z M100.2 6.42 l2.08 12.7 c0.16 1 -2.1 1.1 -2.22 0.38 l-0.4 -2.4 l-2.34 0 l-0.4 2.4 c-0.1 0.6 -2.38 0.62 -2.22 -0.38 l2.1 -12.7 c0.1 -0.6 3.32 -0.54 3.4 0 z M99.28 14.84 l-0.78 -4.78 l-0.8 4.78 l1.58 0 z M105.88 6 l2.7 0 c3.34 0 3.44 14 0.2 14 l-2.84 0 c-1.26 0 -1.26 0 -1.26 -1.1 l0 -11.8 c0 -1.08 0 -1.08 1.2 -1.1 z M107.76 8.26 l-0.02 0 c-0.8 0 -0.8 0 -0.8 0.76 l0 7.96 c0 0.74 0 0.74 0.84 0.74 l0.12 0 c1.3 0 1.24 -9.46 -0.14 -9.46 z M116.22 17.72 l2.86 0 c0.6 0 0.6 2.28 0 2.28 l-3.86 0 c-1.28 0 -1.28 0 -1.28 -1.08 l0 -11.84 c0 -1.08 0 -1.08 1.22 -1.1 l3.9 0.02 c0.6 0 0.6 2.28 0 2.28 l-2.84 0 l0 3.64 l2 0 c0.6 0 0.6 2.3 0 2.3 l-2 0 l0 3.5 z"></path></g><g id="SvgjsG1009" featureKey="ZpTWfr-0" transform="matrix(0.4211286216215075,0,0,0.4211286216215075,34.30093518718776,140.15546542473356)" fill="url(#SvgjsLinearGradient1020)"><path d="M9.44 20.3 l-6.88 -0.00002 c-0.25334 0 -0.46668 -0.08666 -0.64002 -0.26 s-0.26 -0.38 -0.26 -0.62 l0 -0.04 l0 -0.04 l0 -13.94 c0 -0.24 0.08666 -0.44666 0.26 -0.62 s0.38668 -0.26 0.64002 -0.26 l6.88 0 c0.25334 0 0.46668 0.08666 0.64002 0.26 s0.26 0.38 0.26 0.62 c0 0.25334 -0.08666 0.46334 -0.26 0.63 s-0.38668 0.25 -0.64002 0.25 l-6 0 l0 5.1 l5.06 0 c0.24 0 0.44666 0.08334 0.62 0.25 s0.26 0.37666 0.26 0.63 c0 0.24 -0.08666 0.44666 -0.26 0.62 s-0.38 0.26 -0.62 0.26 l-5.06 0 l0 5.38 l6 0 c0.25334 0 0.46668 0.08666 0.64002 0.26 s0.26 0.38668 0.26 0.64002 c0 0.24 -0.08666 0.44666 -0.26 0.62 s-0.38668 0.26 -0.64002 0.26 z M43 5.6 l-5.70006 14.14 c-0.06666 0.17334 -0.17332 0.31 -0.31998 0.41 s-0.31332 0.15 -0.49998 0.15 s-0.35332 -0.05 -0.49998 -0.15 s-0.25332 -0.23666 -0.31998 -0.41 l-5.72 -14.14 c-0.04 -0.09334 -0.06 -0.20668 -0.06 -0.34002 c0 -0.24 0.08666 -0.44666 0.26 -0.62 s0.38 -0.26 0.62 -0.26 c0.18666 0 0.35666 0.05 0.51 0.15 s0.26334 0.23666 0.33 0.41 l4.88 12.1 l4.88 -12.1 c0.06666 -0.17334 0.17332 -0.31 0.31998 -0.41 s0.31332 -0.15 0.49998 -0.15 c0.25334 0 0.46668 0.08666 0.64002 0.26 s0.26 0.38 0.26 0.62 c0 0.13334 -0.02666 0.24668 -0.08 0.34002 z M71.24 20.3 c-1.09334 0 -2.12 -0.20666 -3.08 -0.62 s-1.79666 -0.97668 -2.51 -1.69002 s-1.27668 -1.55 -1.69002 -2.51 s-0.62 -1.98666 -0.62 -3.08 c0 -1.08 0.20666 -2.1 0.62 -3.06 s0.97668 -1.79666 1.69002 -2.51 s1.55 -1.27668 2.51 -1.69002 s1.98666 -0.62 3.08 -0.62 c1.08 0 2.1 0.20666 3.06 0.62 s1.79666 0.97668 2.51 1.69002 s1.27668 1.55 1.69002 2.51 s0.62 1.98 0.62 3.06 c0 1.09334 -0.20666 2.12 -0.62 3.08 s-0.97668 1.79666 -1.69002 2.51 s-1.55 1.27668 -2.51 1.69002 s-1.98 0.62 -3.06 0.62 z M71.24 6.28 c-0.84 0 -1.63334 0.16 -2.38 0.48 s-1.4 0.75666 -1.96 1.31 s-1 1.20334 -1.32 1.95 s-0.48 1.54 -0.48 2.38 s0.16 1.63334 0.48 2.38 s0.76 1.4 1.32 1.96 s1.21334 1 1.96 1.32 s1.54 0.48 2.38 0.48 s1.63334 -0.16 2.38 -0.48 s1.39666 -0.76 1.95 -1.32 s0.99 -1.21334 1.31 -1.96 s0.48 -1.54 0.48 -2.38 s-0.16 -1.63334 -0.48 -2.38 s-0.75666 -1.39666 -1.31 -1.95 s-1.20334 -0.99 -1.95 -1.31 s-1.54 -0.48 -2.38 -0.48 z M107.16 20.3 l-5.34 0 c-0.24 0 -0.44666 -0.08666 -0.62 -0.26 s-0.26 -0.38 -0.26 -0.62 l0 -14.02 c0 -0.25334 0.08666 -0.46334 0.26 -0.63 s0.38 -0.25 0.62 -0.25 c0.25334 0 0.46334 0.08334 0.63 0.25 s0.25 0.37666 0.25 0.63 l0 13.14 l4.46 0 c0.25334 0 0.46668 0.08666 0.64002 0.26 s0.26 0.38 0.26 0.62 s-0.08666 0.44666 -0.26 0.62 s-0.38668 0.26 -0.64002 0.26 z M134.62 20.3 c-0.84 0 -1.626622 -0.160039 -2.35996 -0.48004 s-1.37668 -0.75334 -1.93002 -1.3 s-0.99 -1.19 -1.31 -1.93 s-0.48 -1.53 -0.48 -2.37 l0 -8.82 c0 -0.24 0.08666 -0.44666 0.26 -0.62 s0.38668 -0.26 0.64002 -0.26 c0.24 0 0.44666 0.08666 0.62 0.26 s0.26 0.38 0.26 0.62 l0 8.82 c0 0.6 0.11334 1.16 0.34 1.68 s0.53332 0.97334 0.91998 1.36 s0.84332 0.69332 1.36998 0.91998 s1.08332 0.34 1.66998 0.34 c0.6 0 1.16 -0.11334 1.68 -0.34 s0.97666 -0.53332 1.37 -0.91998 s0.70334 -0.84332 0.93 -1.36998 s0.34 -1.08332 0.34 -1.66998 l0 -8.82 c0 -0.24 0.08666 -0.44666 0.26 -0.62 s0.38 -0.26 0.62 -0.26 c0.25334 0 0.46668 0.08666 0.64002 0.26 s0.26 0.38 0.26 0.62 l0 8.82 c0 0.84 -0.16 1.63 -0.48 2.37 s-0.75666 1.38334 -1.31 1.93 s-1.2 0.98 -1.94 1.3 s-1.53 0.48 -2.37 0.48 z M170.5 20.3 c-1.10666 0 -2.14334 -0.210058 -3.11 -0.630058 s-1.81 -0.99 -2.53 -1.71 s-1.29 -1.56334 -1.71 -2.53 s-0.63 -2.00332 -0.63 -3.10998 c0 -1.09334 0.21 -2.11668 0.63 -3.07002 s0.99 -1.78 1.71 -2.48 s1.56334 -1.25 2.53 -1.65 s2.00332 -0.6 3.10998 -0.6 c1.06666 0 2.08 0.19666 3.04 0.59 s1.82 0.97 2.58 1.73 c0.18666 0.18666 0.28 0.4 0.28 0.64 s-0.09334 0.44666 -0.28 0.62 c-0.17334 0.17334 -0.38 0.26 -0.62 0.26 s-0.44666 -0.08666 -0.62 -0.26 c-0.6 -0.6 -1.27334 -1.05334 -2.02 -1.36 s-1.53332 -0.46 -2.35998 -0.46 c-0.86666 0 -1.67666 0.15666 -2.43 0.47 s-1.41 0.74 -1.97 1.28 s-1 1.17666 -1.32 1.91 s-0.48 1.52668 -0.48 2.38002 s0.16334 1.65668 0.49 2.41002 s0.77 1.41 1.33 1.97 s1.21666 1.00334 1.97 1.33 s1.55668 0.49 2.41002 0.49 c0.82666 0 1.61332 -0.15334 2.35998 -0.46 s1.42 -0.75332 2.02 -1.33998 c0.17334 -0.18666 0.38 -0.28 0.62 -0.28 s0.44666 0.09334 0.62 0.28 c0.18666 0.17334 0.28 0.38 0.28 0.62 s-0.09334 0.44666 -0.28 0.62 c-0.76 0.76 -1.62 1.34 -2.58 1.74 s-1.97334 0.6 -3.04 0.6 z M199.1 20.3 c-0.25334 0 -0.46668 -0.08666 -0.64002 -0.26 s-0.26 -0.38 -0.26 -0.62 l0 -14.02 c0 -0.24 0.08666 -0.44666 0.26 -0.62 s0.38668 -0.26 0.64002 -0.26 c0.24 0 0.44666 0.08666 0.62 0.26 s0.26 0.38 0.26 0.62 l0 14.02 c0 0.24 -0.08666 0.44666 -0.26 0.62 s-0.38 0.26 -0.62 0.26 z M229.68 20.3 c-1.09334 0 -2.12 -0.20666 -3.08 -0.62 s-1.79666 -0.97668 -2.51 -1.69002 s-1.27668 -1.55 -1.69002 -2.51 s-0.62 -1.98666 -0.62 -3.08 c0 -1.08 0.20666 -2.1 0.62 -3.06 s0.97668 -1.79666 1.69002 -2.51 s1.55 -1.27668 2.51 -1.69002 s1.98666 -0.62 3.08 -0.62 c1.08 0 2.1 0.20666 3.06 0.62 s1.79666 0.97668 2.51 1.69002 s1.27668 1.55 1.69002 2.51 s0.62 1.98 0.62 3.06 c0 1.09334 -0.20666 2.12 -0.62 3.08 s-0.97668 1.79666 -1.69002 2.51 s-1.55 1.27668 -2.51 1.69002 s-1.98 0.62 -3.06 0.62 z M229.68 6.28 c-0.84 0 -1.63334 0.16 -2.38 0.48 s-1.4 0.75666 -1.96 1.31 s-1 1.20334 -1.32 1.95 s-0.48 1.54 -0.48 2.38 s0.16 1.63334 0.48 2.38 s0.76 1.4 1.32 1.96 s1.21334 1 1.96 1.32 s1.54 0.48 2.38 0.48 s1.63334 -0.16 2.38 -0.48 s1.39666 -0.76 1.95 -1.32 s0.99 -1.21334 1.31 -1.96 s0.48 -1.54 0.48 -2.38 s-0.16 -1.63334 -0.48 -2.38 s-0.75666 -1.39666 -1.31 -1.95 s-1.20334 -0.99 -1.95 -1.31 s-1.54 -0.48 -2.38 -0.48 z M269.12 20.3 c-0.33334 0 -0.58668 -0.14 -0.76002 -0.42 l-7.22 -11.44 l0 10.98 c0 0.24 -0.08334 0.44666 -0.25 0.62 s-0.37666 0.26 -0.63 0.26 c-0.24 0 -0.44666 -0.08666 -0.62 -0.26 s-0.26 -0.38 -0.26 -0.62 l0 -14.02 c0 -0.24 0.08666 -0.44666 0.26 -0.62 s0.38 -0.26 0.62 -0.26 c0.33334 0 0.58668 0.13334 0.76002 0.4 l7.22 11.44 l0 -10.96 c0 -0.24 0.08334 -0.44666 0.25 -0.62 s0.37666 -0.26 0.63 -0.26 c0.24 0 0.44666 0.08666 0.62 0.26 s0.26 0.38 0.26 0.62 l0 14.02 c0 0.24 -0.08666 0.44666 -0.26 0.62 s-0.38 0.26 -0.62 0.26 z M304.2 20.22 c-0.10666 0.05334 -0.219922 0.08 -0.339922 0.08 c-0.17334 0 -0.33668 -0.04666 -0.49002 -0.14 s-0.26334 -0.22668 -0.33 -0.40002 l-1.58 -3.72 l-7.26 0 l-1.58 3.72 c-0.09334 0.22666 -0.25334 0.38666 -0.48 0.48 s-0.45332 0.08668 -0.67998 -0.01998 c-0.22666 -0.09334 -0.38666 -0.25334 -0.48 -0.48 s-0.08668 -0.45332 0.01998 -0.67998 l1.8 -4.26 l4.22 -9.88 c0.06666 -0.17334 0.17332 -0.30668 0.31998 -0.40002 s0.31332 -0.14 0.49998 -0.14 c0.17334 0 0.33334 0.04666 0.48 0.14 s0.25332 0.22668 0.31998 0.40002 c1.01334 2.37334 2.02 4.73 3.02 7.07 s2.00666 4.69666 3.02 7.07 c0.09334 0.22666 0.09334 0.45332 0 0.67998 s-0.25334 0.38666 -0.48 0.48 z M297.84008 7.54 l-2.88 6.72 l5.74 0 z M359.2 6.28 l-3.23998 0 l0 13.14 c0 0.24 -0.08666 0.44666 -0.26 0.62 s-0.38 0.26 -0.62 0.26 c-0.25334 0 -0.46668 -0.08666 -0.64002 -0.26 s-0.26 -0.38 -0.26 -0.62 l0 -13.14 l-3.24 0 c-0.24 0 -0.44666 -0.08334 -0.62 -0.25 s-0.26 -0.37666 -0.26 -0.63 c0 -0.24 0.08666 -0.44666 0.26 -0.62 s0.38 -0.26 0.62 -0.26 l8.26 0 c0.24 0 0.44666 0.08666 0.62 0.26 s0.26 0.38 0.26 0.62 c0 0.25334 -0.08666 0.46334 -0.26 0.63 s-0.38 0.25 -0.62 0.25 z M386.86 20.3 c-0.84 0 -1.626622 -0.160039 -2.35996 -0.48004 s-1.37668 -0.75334 -1.93002 -1.3 s-0.99 -1.19 -1.31 -1.93 s-0.48 -1.53 -0.48 -2.37 l0 -8.82 c0 -0.24 0.08666 -0.44666 0.26 -0.62 s0.38668 -0.26 0.64002 -0.26 c0.24 0 0.44666 0.08666 0.62 0.26 s0.26 0.38 0.26 0.62 l0 8.82 c0 0.6 0.11334 1.16 0.34 1.68 s0.53332 0.97334 0.91998 1.36 s0.84332 0.69332 1.36998 0.91998 s1.08332 0.34 1.66998 0.34 c0.6 0 1.16 -0.11334 1.68 -0.34 s0.97666 -0.53332 1.37 -0.91998 s0.70334 -0.84332 0.93 -1.36998 s0.34 -1.08332 0.34 -1.66998 l0 -8.82 c0 -0.24 0.08666 -0.44666 0.26 -0.62 s0.38 -0.26 0.62 -0.26 c0.25334 0 0.46668 0.08666 0.64002 0.26 s0.26 0.38 0.26 0.62 l0 8.82 c0 0.84 -0.16 1.63 -0.48 2.37 s-0.75666 1.38334 -1.31 1.93 s-1.2 0.98 -1.94 1.3 s-1.53 0.48 -2.37 0.48 z M445.56 13.36 l-0.24 -0.000039 l0.26 -0.46 l3.62 6.06 c0.08 0.14666 0.12 0.3 0.12 0.46 c0 0.24 -0.08666 0.44666 -0.26 0.62 s-0.38 0.26 -0.62 0.26 c-0.16 0 -0.31 -0.04 -0.45 -0.12 s-0.25 -0.18666 -0.33 -0.32 l-3.88 -6.5 l-0.86 0 l0 6.06 c0 0.24 -0.08666 0.44666 -0.26 0.62 s-0.38 0.26 -0.62 0.26 c-0.25334 0 -0.46668 -0.08666 -0.64002 -0.26 s-0.26 -0.38 -0.26 -0.62 l0 -14.02 c0 -0.24 0.08666 -0.44666 0.26 -0.62 s0.38668 -0.26 0.64002 -0.26 l3.52 0 c0.61334 0 1.19 0.11666 1.73 0.35 s1.01 0.55 1.41 0.95 s0.71666 0.86666 0.95 1.4 s0.35 1.10668 0.35 1.72002 s-0.11666 1.18668 -0.35 1.72002 s-0.55 1 -0.95 1.4 s-0.87 0.71666 -1.41 0.95 s-1.11666 0.35 -1.73 0.35 z M445.56 6.27996 l-2.64 0 l0 5.3 l2.64 0 c0.36 0 0.70334 -0.07 1.03 -0.21 s0.61 -0.33 0.85 -0.57 s0.43 -0.52 0.57 -0.84 s0.21 -0.66 0.21 -1.02 s-0.07 -0.70334 -0.21 -1.03 s-0.33 -0.61 -0.57 -0.85 s-0.52334 -0.43 -0.85 -0.57 s-0.67 -0.21 -1.03 -0.21 z M478.7 20.3 l-6.88 -0.00002 c-0.25334 0 -0.46668 -0.08666 -0.64002 -0.26 s-0.26 -0.38 -0.26 -0.62 l0 -0.04 l0 -0.04 l0 -13.94 c0 -0.24 0.08666 -0.44666 0.26 -0.62 s0.38668 -0.26 0.64002 -0.26 l6.88 0 c0.25334 0 0.46668 0.08666 0.64002 0.26 s0.26 0.38 0.26 0.62 c0 0.25334 -0.08666 0.46334 -0.26 0.63 s-0.38668 0.25 -0.64002 0.25 l-6 0 l0 5.1 l5.06 0 c0.24 0 0.44666 0.08334 0.62 0.25 s0.26 0.37666 0.26 0.63 c0 0.24 -0.08666 0.44666 -0.26 0.62 s-0.38 0.26 -0.62 0.26 l-5.06 0 l0 5.38 l6 0 c0.25334 0 0.46668 0.08666 0.64002 0.26 s0.26 0.38668 0.26 0.64002 c0 0.24 -0.08666 0.44666 -0.26 0.62 s-0.38668 0.26 -0.64002 0.26 z M512.64 20.22 c-0.10666 0.05334 -0.219922 0.08 -0.339922 0.08 c-0.17334 0 -0.33668 -0.04666 -0.49002 -0.14 s-0.26334 -0.22668 -0.33 -0.40002 l-1.58 -3.72 l-7.26 0 l-1.58 3.72 c-0.09334 0.22666 -0.25334 0.38666 -0.48 0.48 s-0.45332 0.08668 -0.67998 -0.01998 c-0.22666 -0.09334 -0.38666 -0.25334 -0.48 -0.48 s-0.08668 -0.45332 0.01998 -0.67998 l1.8 -4.26 l4.22 -9.88 c0.06666 -0.17334 0.17332 -0.30668 0.31998 -0.40002 s0.31332 -0.14 0.49998 -0.14 c0.17334 0 0.33334 0.04666 0.48 0.14 s0.25332 0.22668 0.31998 0.40002 c1.01334 2.37334 2.02 4.73 3.02 7.07 s2.00666 4.69666 3.02 7.07 c0.09334 0.22666 0.09334 0.45332 0 0.67998 s-0.25334 0.38666 -0.48 0.48 z M506.28008 7.54 l-2.88 6.72 l5.74 0 z M540.32 20.3 l-5.34 0 c-0.24 0 -0.44666 -0.08666 -0.62 -0.26 s-0.26 -0.38 -0.26 -0.62 l0 -14.02 c0 -0.25334 0.08666 -0.46334 0.26 -0.63 s0.38 -0.25 0.62 -0.25 c0.25334 0 0.46334 0.08334 0.63 0.25 s0.25 0.37666 0.25 0.63 l0 13.14 l4.46 0 c0.25334 0 0.46668 0.08666 0.64002 0.26 s0.26 0.38 0.26 0.62 s-0.08666 0.44666 -0.26 0.62 s-0.38668 0.26 -0.64002 0.26 z M562.6 20.3 c-0.25334 0 -0.46668 -0.08666 -0.64002 -0.26 s-0.26 -0.38 -0.26 -0.62 l0 -14.02 c0 -0.24 0.08666 -0.44666 0.26 -0.62 s0.38668 -0.26 0.64002 -0.26 c0.24 0 0.44666 0.08666 0.62 0.26 s0.26 0.38 0.26 0.62 l0 14.02 c0 0.24 -0.08666 0.44666 -0.26 0.62 s-0.38 0.26 -0.62 0.26 z M591.52 20.3 l-4.92006 -0.000039 c-0.16 0 -0.31334 -0.04666 -0.46 -0.14 s-0.25332 -0.21334 -0.31998 -0.36 c-0.12 -0.21334 -0.13334 -0.45334 -0.04 -0.72 l0 -13.68 c0 -0.24 0.08666 -0.44666 0.26 -0.62 s0.38668 -0.26 0.64002 -0.26 l4.82 0 c1.05334 0 2.01334 0.22666 2.88 0.68 s1.60666 1.04668 2.22 1.78002 s1.08668 1.56668 1.42002 2.50002 s0.5 1.88 0.5 2.84 c0 1.18666 -0.20334 2.27 -0.61 3.25 s-0.94 1.82 -1.6 2.52 s-1.41 1.24334 -2.25 1.63 s-1.68666 0.58 -2.54 0.58 z M591.49994 6.27996 l-3.94 -0.000078 l0 12.26 l3.96 0 c0.76 0 1.45666 -0.18334 2.09 -0.55 s1.18334 -0.84332 1.65 -1.42998 s0.83 -1.25332 1.09 -1.99998 s0.39 -1.49332 0.39 -2.23998 c0 -0.76 -0.12666 -1.50334 -0.38 -2.23 s-0.61 -1.37332 -1.07 -1.93998 s-1.01334 -1.02 -1.66 -1.36 s-1.35666 -0.51 -2.13 -0.51 z M632.28 20.22 c-0.10666 0.05334 -0.219922 0.08 -0.339922 0.08 c-0.17334 0 -0.33668 -0.04666 -0.49002 -0.14 s-0.26334 -0.22668 -0.33 -0.40002 l-1.58 -3.72 l-7.26 0 l-1.58 3.72 c-0.09334 0.22666 -0.25334 0.38666 -0.48 0.48 s-0.45332 0.08668 -0.67998 -0.01998 c-0.22666 -0.09334 -0.38666 -0.25334 -0.48 -0.48 s-0.08668 -0.45332 0.01998 -0.67998 l1.8 -4.26 l4.22 -9.88 c0.06666 -0.17334 0.17332 -0.30668 0.31998 -0.40002 s0.31332 -0.14 0.49998 -0.14 c0.17334 0 0.33334 0.04666 0.48 0.14 s0.25332 0.22668 0.31998 0.40002 c1.01334 2.37334 2.02 4.73 3.02 7.07 s2.00666 4.69666 3.02 7.07 c0.09334 0.22666 0.09334 0.45332 0 0.67998 s-0.25334 0.38666 -0.48 0.48 z M625.92008 7.54 l-2.88 6.72 l5.74 0 z M659.54 20.3 l-4.92006 -0.000039 c-0.16 0 -0.31334 -0.04666 -0.46 -0.14 s-0.25332 -0.21334 -0.31998 -0.36 c-0.12 -0.21334 -0.13334 -0.45334 -0.04 -0.72 l0 -13.68 c0 -0.24 0.08666 -0.44666 0.26 -0.62 s0.38668 -0.26 0.64002 -0.26 l4.82 0 c1.05334 0 2.01334 0.22666 2.88 0.68 s1.60666 1.04668 2.22 1.78002 s1.08668 1.56668 1.42002 2.50002 s0.5 1.88 0.5 2.84 c0 1.18666 -0.20334 2.27 -0.61 3.25 s-0.94 1.82 -1.6 2.52 s-1.41 1.24334 -2.25 1.63 s-1.68666 0.58 -2.54 0.58 z M659.51994 6.27996 l-3.94 -0.000078 l0 12.26 l3.96 0 c0.76 0 1.45666 -0.18334 2.09 -0.55 s1.18334 -0.84332 1.65 -1.42998 s0.83 -1.25332 1.09 -1.99998 s0.39 -1.49332 0.39 -2.23998 c0 -0.76 -0.12666 -1.50334 -0.38 -2.23 s-0.61 -1.37332 -1.07 -1.93998 s-1.01334 -1.02 -1.66 -1.36 s-1.35666 -0.51 -2.13 -0.51 z"></path></g>
			</g>
		</svg>
	